{
  "streams": [
    {
      "index": 0,
      "codec_name": "aac",
      "codec_long_name": "AAC (Advanced Audio Coding)",
      "profile": "LC",
      "codec_type": "audio",
      "codec_tag_string": "mp4a",
      "codec_tag": "0x6134706d",
      "sample_fmt": "fltp",
      "sample_rate": "44100",
      "channels": 2,
      "channel_layout": "stereo",
      "bits_per_sample": 0,
      "initial_padding": 0,
      "id": "0x1",
      "r_frame_rate": "0/0",
      "avg_frame_rate": "0/0",
      "time_base": "1/44100",
      "start_pts": 0,
      "start_time": "0.000000",
      "duration_ts": 82320,
      "duration": "1.866667",
      "bit_rate": "137210",
      "nb_frames": "83",
      "extradata_size": 2,
      "disposition": {
        "default": 1,
        "dub": 0,
        "original": 0,
        "comment": 0,
        "lyrics": 0,
        "karaoke": 0,
        "forced": 0,
        "hearing_impaired": 0,
        "visual_impaired": 0,
        "clean_effects": 0,
        "attached_pic": 0,
        "timed_thumbnails": 0,
        "non_diegetic": 0,
        "captions": 0,
        "descriptions": 0,
        "metadata": 0,
        "dependent": 0,
        "still_image": 0,
        "multilayer": 0
      },
      "tags": {
        "creation_time": "2025-01-27T11:50:53.000000Z",
        "language": "und",
        "handler_name": "Core Media Audio",
        "vendor_id": "[0][0][0][0]"
      }
    },
    {
      "index": 1,
      "codec_name": "h264",
      "codec_long_name": "H.264 / AVC / MPEG-4 AVC / MPEG-4 part 10",
      "profile": "Main",
      "codec_type": "video",
      "codec_tag_string": "avc1",
      "codec_tag": "0x31637661",
      "width": 568,
      "height": 320,
      "coded_width": 568,
      "coded_height": 320,
      "closed_captions": 0,
      "film_grain": 0,
      "has_b_frames": 2,
      "pix_fmt": "yuv420p",
      "level": 30,
      "color_range": "tv",
      "color_space": "bt709",
      "color_transfer": "bt709",
      "color_primaries": "bt709",
      "chroma_location": "left",
      "field_order": "progressive",
      "refs": 1,
      "is_avc": "true",
      "nal_length_size": "4",
      "id": "0x2",
      "r_frame_rate": "30/1",
      "avg_frame_rate": "30/1",
      "time_base": "1/600",
      "start_pts": 0,
      "start_time": "0.000000",
      "duration_ts": 1120,
      "duration": "1.866667",
      "bit_rate": "712290",
      "bits_per_raw_sample": "8",
      "nb_frames": "56",
      "extradata_size": 30,
      "disposition": {
        "default": 1,
        "dub": 0,
        "original": 0,
        "comment": 0,
        "lyrics": 0,
        "karaoke": 0,
        "forced": 0,
        "hearing_impaired": 0,
        "visual_impaired": 0,
        "clean_effects": 0,
        "attached_pic": 0,
        "timed_thumbnails": 0,
        "non_diegetic": 0,
        "captions": 0,
        "descriptions": 0,
        "metadata": 0,
        "dependent": 0,
        "still_image": 0,
        "multilayer": 0
      },
      "tags": {
        "creation_time": "2025-01-27T11:50:53.000000Z",
        "language": "und",
        "handler_name": "Core Media Video",
        "vendor_id": "[0][0][0][0]"
      },
      "side_data_list": [
        {
          "side_data_type": "Display Matrix",
          "displaymatrix": "\n00000000:            0       65536           0\n00000001:       -65536           0           0\n00000002:     20971520           0  1073741824\n",
          "rotation": -90
        }
      ]
    },
    {
      "index": 2,
      "codec_type": "data",
      "codec_tag_string": "mebx",
      "codec_tag": "0x7862656d",
      "id": "0x3",
      "r_frame_rate": "0/0",
      "avg_frame_rate": "0/0",
      "time_base": "1/600",
      "start_pts": 0,
      "start_time": "0.000000",
      "duration_ts": 1120,
      "duration": "1.866667",
      "bit_rate": "42",
      "nb_frames": "1",
      "disposition": {
        "default": 1,
        "dub": 0,
        "original": 0,
        "comment": 0,
        "lyrics": 0,
        "karaoke": 0,
        "forced": 0,
        "hearing_impaired": 0,
        "visual_impaired": 0,
        "clean_effects": 0,
        "attached_pic": 0,
        "timed_thumbnails": 0,
        "non_diegetic": 0,
        "captions": 0,
        "descriptions": 0,
        "metadata": 0,
        "dependent": 0,
        "still_image": 0,
        "multilayer": 0
      },
      "tags": {
        "creation_time": "2025-01-27T11:50:53.000000Z",
        "language": "und",
        "handler_name": "Core Media Metadata"
      }
    },
    {
      "index": 3,
      "codec_type": "data",
      "codec_tag_string": "mebx",
      "codec_tag": "0x7862656d",
      "id": "0x4",
      "r_frame_rate": "0/0",
      "avg_frame_rate": "0/0",
      "time_base": "1/600",
      "start_pts": 0,
      "start_time": "0.000000",
      "duration_ts": 1120,
      "duration": "1.866667",
      "bit_rate": "23122",
      "nb_frames": "54",
      "disposition": {
        "default": 1,
        "dub": 0,
        "original": 0,
        "comment": 0,
        "lyrics": 0,
        "karaoke": 0,
        "forced": 0,
        "hearing_impaired": 0,
        "visual_impaired": 0,
        "clean_effects": 0,
        "attached_pic": 0,
        "timed_thumbnails": 0,
        "non_diegetic": 0,
        "captions": 0,
        "descriptions": 0,
        "metadata": 0,
        "dependent": 0,
        "still_image": 0,
        "multilayer": 0
      },
      "tags": {
        "creation_time": "2025-01-27T11:50:53.000000Z",
        "language": "und",
        "handler_name": "Core Media Metadata"
      }
    },
    {
      "index": 4,
      "codec_type": "data",
      "codec_tag_string": "mebx",
      "codec_tag": "0x7862656d",
      "id": "0x5",
      "r_frame_rate": "0/0",
      "avg_frame_rate": "0/0",
      "time_base": "1/600",
      "start_pts": 0,
      "start_time": "0.000000",
      "duration_ts": 1120,
      "duration": "1.866667",
      "bit_rate": "99840",
      "nb_frames": "112",
      "disposition": {
        "default": 1,
        "dub": 0,
        "original": 0,
        "comment": 0,
        "lyrics": 0,
        "karaoke": 0,
        "forced": 0,
        "hearing_impaired": 0,
        "visual_impaired": 0,
        "clean_effects": 0,
        "attached_pic": 0,
        "timed_thumbnails": 0,
        "non_diegetic": 0,
        "captions": 0,
        "descriptions": 0,
        "metadata": 0,
        "dependent": 0,
        "still_image": 0,
        "multilayer": 0
      },
      "tags": {
        "creation_time": "2025-01-27T11:50:53.000000Z",
        "language": "und",
        "handler_name": "Core Media Metadata"
      }
    },
    {
      "index": 5,
      "codec_type": "data",
      "codec_tag_string": "mebx",
      "codec_tag": "0x7862656d",
      "id": "0x6",
      "r_frame_rate": "0/0",
      "avg_frame_rate": "0/0",
      "time_base": "1/600",
      "start_pts": 0,
      "start_time": "0.000000",
      "duration_ts": 1120,
      "duration": "1.866667",
      "bit_rate": "188",
      "nb_frames": "1",
      "disposition": {
        "default": 1,
        "dub": 0,
        "original": 0,
        "comment": 0,
        "lyrics": 0,
        "karaoke": 0,
        "forced": 0,
        "hearing_impaired": 0,
        "visual_impaired": 0,
        "clean_effects": 0,
        "attached_pic": 0,
        "timed_thumbnails": 0,
        "non_diegetic": 0,
        "captions": 0,
        "descriptions": 0,
        "metadata": 0,
        "dependent": 0,
        "still_image": 0,
        "multilayer": 0
      },
      "tags": {
        "creation_time": "2025-01-27T11:50:53.000000Z",
        "language": "und",
        "handler_name": "Core Media Metadata"
      }
    }
  ],
  "format": {
    "filename": "D:\\Programming\\Python\\AI\\Basics\\AMNIL Tech\\Liveness Detection\\lip_movement\\video\\fake\\fake1.mp4",
    "nb_streams": 6,
    "nb_programs": 0,
    "nb_stream_groups": 0,
    "format_name": "mov,mp4,m4a,3gp,3g2,mj2",
    "format_long_name": "QuickTime / MOV",
    "start_time": "0.000000",
    "duration": "1.866667",
    "size": "234071",
    "bit_rate": "1003161",
    "probe_score": 100,
    "tags": {
      "major_brand": "mp42",
      "minor_version": "1",
      "compatible_brands": "isommp41mp42",
      "creation_time": "2025-01-27T11:50:52.000000Z"
    }
  }
}
